HIERARCHY
ROOT joint_Root
{
	OFFSET 0.0 0.0 0.0
	CHANNELS 6 Xposition Yposition Zposition Zrotation Xrotation Yrotation 
	JOINT Hips
	{
		OFFSET -17.1583 93.1646 452.98
		CHANNELS 6 Xposition Yposition Zposition Zrotation Xrotation Yrotation 
		JOINT Spine
		{
			OFFSET 15.7357 0.0 0.0
			CHANNELS 6 Xposition Yposition Zposition Zrotation Xrotation Yrotation 
			JOINT Chest
			{
				OFFSET 8.98455 -0.406207 0.0
				CHANNELS 6 Xposition Yposition Zposition Zrotation Xrotation Yrotation 
				JOINT Neck
				{
					OFFSET 16.3773 0.0 0.0
					CHANNELS 6 Xposition Yposition Zposition Zrotation Xrotation Yrotation 
					JOINT Head
					{
						OFFSET 6.45672 0.0 0.0
						CHANNELS 6 Xposition Yposition Zposition Zrotation Xrotation Yrotation 
						End Site
						{
							OFFSET 0.0 0.0 0.0
						}
					}
				}
				JOINT Shoulder_L
				{
					OFFSET 12.9942 -0.242716 4.98039
					CHANNELS 6 Xposition Yposition Zposition Zrotation Xrotation Yrotation 
					JOINT UpperArm_L
					{
						OFFSET 5.34809 0.0 0.0
						CHANNELS 6 Xposition Yposition Zposition Zrotation Xrotation Yrotation 
						JOINT LowerArm_L
						{
							OFFSET 24.3286 1.87007e-05 0.0
							CHANNELS 6 Xposition Yposition Zposition Zrotation Xrotation Yrotation 
							JOINT Hand_L
							{
								OFFSET 22.2916 0.0 0.0
								CHANNELS 6 Xposition Yposition Zposition Zrotation Xrotation Yrotation 
								End Site
								{
									OFFSET 0.0 0.0 0.0
								}
							}
						}
					}
				}
				JOINT Shoulder_R
				{
					OFFSET 12.9945 -0.242716 -4.98039
					CHANNELS 6 Xposition Yposition Zposition Zrotation Xrotation Yrotation 
					JOINT UpperArm_R
					{
						OFFSET -5.34813 0.0 0.0
						CHANNELS 6 Xposition Yposition Zposition Zrotation Xrotation Yrotation 
						JOINT LowerArm_R
						{
							OFFSET -24.3289 0.000322201 0.0
							CHANNELS 6 Xposition Yposition Zposition Zrotation Xrotation Yrotation 
							JOINT Hand_R
							{
								OFFSET -22.2915 -0.000108084 0.0
								CHANNELS 6 Xposition Yposition Zposition Zrotation Xrotation Yrotation 
								End Site
								{
									OFFSET 0.0 0.0 0.0
								}
							}
						}
					}
				}
			}
		}
		JOINT UpperLeg_L
		{
			OFFSET -2.19248 -6.46944 0.0
			CHANNELS 6 Xposition Yposition Zposition Zrotation Xrotation Yrotation 
			JOINT LowerLeg_L
			{
				OFFSET 39.0811 0.0 -1.23785e-05
				CHANNELS 6 Xposition Yposition Zposition Zrotation Xrotation Yrotation 
				JOINT Foot_L
				{
					OFFSET 40.9854 0.0 -1.26872e-05
					CHANNELS 6 Xposition Yposition Zposition Zrotation Xrotation Yrotation 
					JOINT Toes_L
					{
						OFFSET 11.7543 0.0 0.0
						CHANNELS 6 Xposition Yposition Zposition Zrotation Xrotation Yrotation 
						End Site
						{
							OFFSET 0.0 0.0 0.0
						}
					}
				}
			}
		}
		JOINT UpperLeg_R
		{
			OFFSET -2.19251 6.46944 0.0
			CHANNELS 6 Xposition Yposition Zposition Zrotation Xrotation Yrotation 
			JOINT LowerLeg_R
			{
				OFFSET -39.0811 -0.00228153 -0.0401928
				CHANNELS 6 Xposition Yposition Zposition Zrotation Xrotation Yrotation 
				JOINT Foot_R
				{
					OFFSET -40.9854 0.0 0.0
					CHANNELS 6 Xposition Yposition Zposition Zrotation Xrotation Yrotation 
					JOINT Toes_R
					{
						OFFSET -11.7543 0.0 0.0
						CHANNELS 6 Xposition Yposition Zposition Zrotation Xrotation Yrotation 
						End Site
						{
							OFFSET 0.0 0.0 0.0
						}
					}
				}
			}
		}
	}
}
MOTION
Frames:	5
Frame Time:	0.0333333
0.000000 0.000000 0.000000 0.000000 0.000000 -0.000000 1.186980 92.848300 -0.552424 88.224700 -1.438110 4.761360 15.735700 0.000005 -0.000001 113.415000 85.469600 -113.537000 8.984550 -0.406207 -0.000000 0.554479 3.607110 -0.261449 16.377300 -0.000001 -0.000001 -2.275500 0.192222 2.271840 6.456720 -0.000001 -0.000000 1.585010 0.088018 8.785870 12.994200 -0.242716 4.980390 -92.322600 7.156170 -71.966000 5.348090 -0.000007 -0.000001 -68.567200 17.966600 -8.109710 24.328600 0.000019 0.000005 6.322860 30.625300 -12.272600 22.291600 -0.000001 0.000005 -9.785320 5.206810 2.546030 12.994500 -0.242716 -4.980390 88.989200 4.055500 -75.991900 -5.348130 -0.000001 -0.000004 -73.802700 27.449800 -2.855510 -24.328900 0.000322 -0.000009 0.438641 1.754290 -14.072900 -22.291500 -0.000108 -0.000004 2.777650 5.258960 1.194800 -2.192480 -6.469440 -0.000000 -174.566000 -3.570760 1.022730 39.081100 -0.000007 -0.000012 0.023768 -0.070343 18.670000 40.985400 -0.000006 -0.000013 0.173329 10.963700 -69.485500 11.754300 -0.000000 0.000003 -0.000908 0.181715 -9.205660 -2.192510 6.469440 -0.000001 175.124000 4.082440 -176.532000 -39.081100 -0.002282 -0.040193 0.013177 -0.040922 13.526100 -40.985400 0.000008 0.000006 -6.845900 8.875820 -67.488900 -11.754300 -0.000006 -0.000006 -0.010429 0.274483 -5.420990
0.000000 0.000000 0.000000 0.000000 0.000000 -0.000000 1.170190 92.843200 -0.469331 88.318300 -1.309470 4.603840 15.735700 0.000005 -0.000001 114.349000 85.505500 -114.344000 8.984550 -0.406207 -0.000000 0.425198 3.704620 -0.002946 16.377300 -0.000001 -0.000001 -2.462090 -0.071251 3.035110 6.456720 -0.000001 -0.000000 0.859217 -0.003005 10.042500 12.994200 -0.242716 4.980390 -92.330800 7.117010 -71.813700 5.348090 -0.000007 -0.000001 -67.173900 10.713100 -10.425500 24.328600 0.000019 0.000005 4.102390 31.459600 -7.824620 22.291600 -0.000001 0.000005 -11.681800 5.179580 3.235870 12.994500 -0.242716 -4.980390 88.959000 4.164340 -75.951600 -5.348130 -0.000001 -0.000004 -73.466300 26.125400 -2.626660 -24.328900 0.000322 -0.000009 0.360427 1.486000 -13.670600 -22.291500 -0.000108 -0.000004 2.903760 5.263840 1.064370 -2.192480 -6.469440 -0.000000 -174.629000 -3.682010 0.954240 39.081100 -0.000007 -0.000012 0.020158 -0.060017 18.565900 40.985400 -0.000006 -0.000013 0.192569 11.159700 -69.484400 11.754300 -0.000000 0.000003 -0.000959 0.182448 -9.175870 -2.192510 6.469440 -0.000001 175.093000 4.020780 -176.649000 -39.081100 -0.002282 -0.040193 0.015978 -0.052255 13.603500 -40.985400 0.000008 0.000006 -6.667300 8.669580 -67.671700 -11.754300 -0.000006 -0.000006 -0.010279 0.273375 -5.466320
0.000000 0.000000 0.000000 0.000000 0.000000 -0.000000 1.127080 92.846300 -0.359398 88.381100 -1.226970 4.321480 15.735700 0.000005 -0.000001 114.352000 85.652500 -114.132000 8.984550 -0.406207 -0.000000 0.150015 3.569750 0.435233 16.377300 -0.000001 -0.000001 -2.748540 -0.216906 3.656990 6.456720 -0.000001 -0.000000 0.458278 0.100069 11.453100 12.994200 -0.242716 4.980390 -92.224800 6.683570 -71.541200 5.348090 -0.000007 -0.000001 -65.791400 2.071320 -12.635300 24.328600 0.000019 0.000005 2.034280 32.008400 -3.833720 22.291600 -0.000001 0.000005 -12.725700 5.138550 4.218320 12.994500 -0.242716 -4.980390 88.927000 4.264370 -75.862000 -5.348130 -0.000001 -0.000004 -72.922300 24.765400 -2.718760 -24.328900 0.000322 -0.000009 0.316686 1.382250 -12.947200 -22.291500 -0.000108 -0.000004 3.122850 5.264990 1.033310 -2.192480 -6.469440 -0.000000 -174.657000 -3.776350 0.824079 39.081100 -0.000007 -0.000012 0.017404 -0.052352 18.389000 40.985400 -0.000006 -0.000013 0.180247 11.306700 -69.486500 11.754300 -0.000000 0.000003 -0.001011 0.183198 -9.145390 -2.192510 6.469440 -0.000001 175.117000 3.909870 -176.824000 -39.081100 -0.002282 -0.040193 0.018295 -0.061991 13.569000 -40.985400 0.000008 0.000006 -6.521810 8.448260 -67.843400 -11.754300 -0.000006 -0.000006 -0.010666 0.276219 -5.349950
0.000000 0.000000 0.000000 0.000000 0.000000 -0.000000 1.052220 92.842800 -0.188030 88.419400 -1.273460 4.115030 15.735700 0.000005 -0.000001 113.735000 85.823400 -113.203000 8.984550 -0.406207 -0.000000 -0.133586 3.324770 1.066400 16.377300 -0.000001 -0.000001 -3.052930 -0.197146 4.064020 6.456720 -0.000001 -0.000000 0.284307 0.331392 12.949400 12.994200 -0.242716 4.980390 -91.988700 5.901330 -71.338700 5.348090 -0.000007 -0.000001 -63.513300 -4.779610 -14.515700 24.328600 0.000019 0.000005 0.761774 32.600200 -1.414150 22.291600 -0.000001 0.000005 -13.971100 5.092090 5.298290 12.994500 -0.242716 -4.980390 88.906400 4.300330 -75.717700 -5.348130 -0.000001 -0.000004 -72.242700 23.279300 -2.903740 -24.328900 0.000322 -0.000009 0.336098 1.554600 -12.239000 -22.291500 -0.000108 -0.000004 3.504790 5.263290 1.078580 -2.192480 -6.469440 -0.000000 -174.591000 -4.092830 0.855134 39.081100 -0.000007 -0.000012 0.014899 -0.045342 18.190000 40.985400 -0.000006 -0.000013 0.165223 11.592200 -69.535500 11.754300 -0.000000 0.000003 -0.001045 0.183679 -9.125840 -2.192510 6.469440 -0.000001 175.200000 3.592950 -176.907000 -39.081100 -0.002282 -0.040193 0.020116 -0.069690 13.540600 -40.985400 0.000008 0.000006 -6.393960 8.131830 -68.007100 -11.754300 -0.000006 -0.000006 -0.010394 0.274225 -5.431530
0.000000 0.000000 0.000000 0.000000 0.000000 -0.000000 0.956121 92.843400 -0.023375 88.441500 -1.358090 3.897640 15.735700 0.000005 -0.000001 112.566000 86.001100 -111.661000 8.984550 -0.406207 -0.000000 -0.403090 3.004000 1.820000 16.377300 -0.000001 -0.000001 -3.353860 -0.056856 4.442830 6.456720 -0.000001 -0.000000 0.055612 0.717462 14.422200 12.994200 -0.242716 4.980390 -91.682900 4.954600 -71.212300 5.348090 -0.000007 -0.000001 -60.234000 -10.764100 -16.277800 24.328600 0.000019 0.000005 0.079921 34.488700 -0.141325 22.291600 -0.000001 0.000005 -15.470400 5.069700 5.800600 12.994500 -0.242716 -4.980390 88.866100 4.388510 -75.497900 -5.348130 -0.000001 -0.000004 -71.354600 21.521000 -3.048690 -24.328900 0.000322 -0.000009 0.347302 1.653120 -11.901100 -22.291500 -0.000108 -0.000004 3.746760 5.258260 1.213570 -2.192480 -6.469440 -0.000000 -174.533000 -4.296780 0.881616 39.081100 -0.000007 -0.000012 0.016009 -0.049313 17.985700 40.985400 -0.000006 -0.000013 0.105662 11.682600 -69.636200 11.754300 -0.000000 0.000003 -0.000971 0.182620 -9.168860 -2.192510 6.469440 -0.000001 175.307000 3.248220 -177.001000 -39.081100 -0.002282 -0.040193 0.021254 -0.074688 13.492700 -40.985400 0.000008 0.000006 -6.337140 7.848340 -68.135900 -11.754300 -0.000006 -0.000006 -0.010266 0.273278 -5.470280
